<svg xmlns="http://www.w3.org/2000/svg" xmlns:xlink="http://www.w3.org/1999/xlink" width="1080" zoomAndPan="magnify" viewBox="0 0 810 809.999993" height="1080" preserveAspectRatio="xMidYMid meet" version="1.2"><defs><clipPath id="2e9c5a49a8"><path d="M 379.234375 379.234375 L 430.984375 379.234375 L 430.984375 430.984375 L 379.234375 430.984375 Z M 379.234375 379.234375 "/></clipPath><clipPath id="6a7edd1bfd"><path d="M 430.984375 405.109375 C 430.984375 405.957031 430.945312 406.804688 430.859375 407.648438 C 430.777344 408.492188 430.652344 409.328125 430.488281 410.160156 C 430.324219 410.988281 430.117188 411.8125 429.871094 412.621094 C 429.625 413.433594 429.339844 414.230469 429.015625 415.011719 C 428.691406 415.796875 428.328125 416.5625 427.929688 417.308594 C 427.53125 418.054688 427.097656 418.78125 426.625 419.484375 C 426.15625 420.191406 425.648438 420.871094 425.113281 421.527344 C 424.574219 422.179688 424.007812 422.808594 423.40625 423.40625 C 422.808594 424.007812 422.179688 424.574219 421.527344 425.113281 C 420.871094 425.648438 420.191406 426.15625 419.484375 426.625 C 418.78125 427.097656 418.054688 427.53125 417.308594 427.929688 C 416.5625 428.328125 415.796875 428.691406 415.011719 429.015625 C 414.230469 429.339844 413.433594 429.625 412.621094 429.871094 C 411.8125 430.117188 410.988281 430.324219 410.160156 430.488281 C 409.328125 430.652344 408.492188 430.777344 407.648438 430.859375 C 406.804688 430.945312 405.957031 430.984375 405.109375 430.984375 C 404.261719 430.984375 403.417969 430.945312 402.574219 430.859375 C 401.730469 430.777344 400.894531 430.652344 400.0625 430.488281 C 399.230469 430.324219 398.410156 430.117188 397.601562 429.871094 C 396.789062 429.625 395.992188 429.339844 395.207031 429.015625 C 394.425781 428.691406 393.660156 428.328125 392.914062 427.929688 C 392.167969 427.53125 391.441406 427.097656 390.734375 426.625 C 390.03125 426.15625 389.351562 425.648438 388.695312 425.113281 C 388.039062 424.574219 387.414062 424.007812 386.816406 423.40625 C 386.214844 422.808594 385.648438 422.179688 385.109375 421.527344 C 384.570312 420.871094 384.066406 420.191406 383.597656 419.484375 C 383.125 418.78125 382.691406 418.054688 382.292969 417.308594 C 381.890625 416.5625 381.53125 415.796875 381.207031 415.011719 C 380.882812 414.230469 380.597656 413.433594 380.351562 412.621094 C 380.105469 411.8125 379.898438 410.988281 379.734375 410.160156 C 379.566406 409.328125 379.445312 408.492188 379.359375 407.648438 C 379.277344 406.804688 379.234375 405.957031 379.234375 405.109375 C 379.234375 404.261719 379.277344 403.417969 379.359375 402.574219 C 379.445312 401.730469 379.566406 400.894531 379.734375 400.0625 C 379.898438 399.230469 380.105469 398.410156 380.351562 397.601562 C 380.597656 396.789062 380.882812 395.992188 381.207031 395.207031 C 381.53125 394.425781 381.890625 393.660156 382.292969 392.914062 C 382.691406 392.167969 383.125 391.441406 383.597656 390.734375 C 384.066406 390.03125 384.570312 389.351562 385.109375 388.695312 C 385.648438 388.039062 386.214844 387.414062 386.816406 386.816406 C 387.414062 386.214844 388.039062 385.648438 388.695312 385.109375 C 389.351562 384.570312 390.03125 384.066406 390.734375 383.597656 C 391.441406 383.125 392.167969 382.691406 392.914062 382.292969 C 393.660156 381.890625 394.425781 381.53125 395.207031 381.207031 C 395.992188 380.882812 396.789062 380.597656 397.601562 380.351562 C 398.410156 380.105469 399.230469 379.898438 400.0625 379.734375 C 400.894531 379.566406 401.730469 379.445312 402.574219 379.359375 C 403.417969 379.277344 404.261719 379.234375 405.109375 379.234375 C 405.957031 379.234375 406.804688 379.277344 407.648438 379.359375 C 408.492188 379.445312 409.328125 379.566406 410.160156 379.734375 C 410.988281 379.898438 411.8125 380.105469 412.621094 380.351562 C 413.433594 380.597656 414.230469 380.882812 415.011719 381.207031 C 415.796875 381.53125 416.5625 381.890625 417.308594 382.292969 C 418.054688 382.691406 418.78125 383.125 419.484375 383.597656 C 420.191406 384.066406 420.871094 384.570312 421.527344 385.109375 C 422.179688 385.648438 422.808594 386.214844 423.40625 386.816406 C 424.007812 387.414062 424.574219 388.039062 425.113281 388.695312 C 425.648438 389.351562 426.15625 390.03125 426.625 390.734375 C 427.097656 391.441406 427.53125 392.167969 427.929688 392.914062 C 428.328125 393.660156 428.691406 394.425781 429.015625 395.207031 C 429.339844 395.992188 429.625 396.789062 429.871094 397.601562 C 430.117188 398.410156 430.324219 399.230469 430.488281 400.0625 C 430.652344 400.894531 430.777344 401.730469 430.859375 402.574219 C 430.945312 403.417969 430.984375 404.261719 430.984375 405.109375 Z M 430.984375 405.109375 "/></clipPath><linearGradient x1="16" gradientTransform="matrix(1.784483,0,0,1.784483,376.55914,376.559157)" y1="1.500005" x2="16" gradientUnits="userSpaceOnUse" y2="30.499996" id="def98cdcb7"><stop style="stop-color:#08c8f6;stop-opacity:1;" offset="0"/><stop style="stop-color:#08c7f6;stop-opacity:1;" offset="0.0078125"/><stop style="stop-color:#09c7f6;stop-opacity:1;" offset="0.015625"/><stop style="stop-color:#09c6f6;stop-opacity:1;" offset="0.0234375"/><stop style="stop-color:#0ac5f6;stop-opacity:1;" offset="0.03125"/><stop style="stop-color:#0ac4f6;stop-opacity:1;" offset="0.0390625"/><stop style="stop-color:#0bc3f6;stop-opacity:1;" offset="0.046875"/><stop style="stop-color:#0bc2f6;stop-opacity:1;" offset="0.0546875"/><stop style="stop-color:#0cc2f6;stop-opacity:1;" offset="0.0625"/><stop style="stop-color:#0cc1f6;stop-opacity:1;" offset="0.0703125"/><stop style="stop-color:#0dc0f6;stop-opacity:1;" offset="0.078125"/><stop style="stop-color:#0ebff6;stop-opacity:1;" offset="0.0859375"/><stop style="stop-color:#0ebef7;stop-opacity:1;" offset="0.09375"/><stop style="stop-color:#0fbdf7;stop-opacity:1;" offset="0.101562"/><stop style="stop-color:#0fbdf7;stop-opacity:1;" offset="0.109375"/><stop style="stop-color:#10bcf7;stop-opacity:1;" offset="0.117187"/><stop style="stop-color:#10bbf7;stop-opacity:1;" offset="0.125"/><stop style="stop-color:#11baf7;stop-opacity:1;" offset="0.132812"/><stop style="stop-color:#11b9f7;stop-opacity:1;" offset="0.140625"/><stop style="stop-color:#12b8f7;stop-opacity:1;" offset="0.148437"/><stop style="stop-color:#12b8f7;stop-opacity:1;" offset="0.15625"/><stop style="stop-color:#13b7f7;stop-opacity:1;" offset="0.164062"/><stop style="stop-color:#14b6f7;stop-opacity:1;" offset="0.171875"/><stop style="stop-color:#14b5f7;stop-opacity:1;" offset="0.179687"/><stop style="stop-color:#15b4f7;stop-opacity:1;" offset="0.1875"/><stop style="stop-color:#15b3f7;stop-opacity:1;" offset="0.195312"/><stop style="stop-color:#16b3f7;stop-opacity:1;" offset="0.203125"/><stop style="stop-color:#16b2f7;stop-opacity:1;" offset="0.210938"/><stop style="stop-color:#17b1f7;stop-opacity:1;" offset="0.21875"/><stop style="stop-color:#17b0f7;stop-opacity:1;" offset="0.226562"/><stop style="stop-color:#18aff7;stop-opacity:1;" offset="0.234375"/><stop style="stop-color:#18aef7;stop-opacity:1;" offset="0.242188"/><stop style="stop-color:#19aef7;stop-opacity:1;" offset="0.25"/><stop style="stop-color:#19adf7;stop-opacity:1;" offset="0.257813"/><stop style="stop-color:#1aacf7;stop-opacity:1;" offset="0.265625"/><stop style="stop-color:#1babf7;stop-opacity:1;" offset="0.273438"/><stop style="stop-color:#1baaf7;stop-opacity:1;" offset="0.28125"/><stop style="stop-color:#1ca9f7;stop-opacity:1;" offset="0.289063"/><stop style="stop-color:#1ca9f7;stop-opacity:1;" offset="0.296875"/><stop style="stop-color:#1da8f8;stop-opacity:1;" offset="0.304688"/><stop style="stop-color:#1da7f8;stop-opacity:1;" offset="0.3125"/><stop style="stop-color:#1ea6f8;stop-opacity:1;" offset="0.320312"/><stop style="stop-color:#1ea5f8;stop-opacity:1;" offset="0.328125"/><stop style="stop-color:#1fa4f8;stop-opacity:1;" offset="0.335938"/><stop style="stop-color:#1fa4f8;stop-opacity:1;" offset="0.34375"/><stop style="stop-color:#20a3f8;stop-opacity:1;" offset="0.351563"/><stop style="stop-color:#20a2f8;stop-opacity:1;" offset="0.359375"/><stop style="stop-color:#21a1f8;stop-opacity:1;" offset="0.367188"/><stop style="stop-color:#22a0f8;stop-opacity:1;" offset="0.375"/><stop style="stop-color:#229ff8;stop-opacity:1;" offset="0.382813"/><stop style="stop-color:#239ff8;stop-opacity:1;" offset="0.390625"/><stop style="stop-color:#239ef8;stop-opacity:1;" offset="0.398438"/><stop style="stop-color:#249df8;stop-opacity:1;" offset="0.40625"/><stop style="stop-color:#249cf8;stop-opacity:1;" offset="0.414063"/><stop style="stop-color:#259bf8;stop-opacity:1;" offset="0.421875"/><stop style="stop-color:#259af8;stop-opacity:1;" offset="0.429688"/><stop style="stop-color:#269af8;stop-opacity:1;" offset="0.4375"/><stop style="stop-color:#2699f8;stop-opacity:1;" offset="0.445313"/><stop style="stop-color:#2798f8;stop-opacity:1;" offset="0.453125"/><stop style="stop-color:#2797f8;stop-opacity:1;" offset="0.460938"/><stop style="stop-color:#2896f8;stop-opacity:1;" offset="0.46875"/><stop style="stop-color:#2995f8;stop-opacity:1;" offset="0.476563"/><stop style="stop-color:#2995f8;stop-opacity:1;" offset="0.484375"/><stop style="stop-color:#2a94f8;stop-opacity:1;" offset="0.492188"/><stop style="stop-color:#2a93f8;stop-opacity:1;" offset="0.5"/><stop style="stop-color:#2b92f9;stop-opacity:1;" offset="0.507813"/><stop style="stop-color:#2b91f9;stop-opacity:1;" offset="0.515625"/><stop style="stop-color:#2c90f9;stop-opacity:1;" offset="0.523438"/><stop style="stop-color:#2c90f9;stop-opacity:1;" offset="0.53125"/><stop style="stop-color:#2d8ff9;stop-opacity:1;" offset="0.539063"/><stop style="stop-color:#2d8ef9;stop-opacity:1;" offset="0.546875"/><stop style="stop-color:#2e8df9;stop-opacity:1;" offset="0.554688"/><stop style="stop-color:#2f8cf9;stop-opacity:1;" offset="0.5625"/><stop style="stop-color:#2f8bf9;stop-opacity:1;" offset="0.570312"/><stop style="stop-color:#308bf9;stop-opacity:1;" offset="0.578125"/><stop style="stop-color:#308af9;stop-opacity:1;" offset="0.585938"/><stop style="stop-color:#3189f9;stop-opacity:1;" offset="0.59375"/><stop style="stop-color:#3188f9;stop-opacity:1;" offset="0.601563"/><stop style="stop-color:#3287f9;stop-opacity:1;" offset="0.609375"/><stop style="stop-color:#3286f9;stop-opacity:1;" offset="0.617188"/><stop style="stop-color:#3386f9;stop-opacity:1;" offset="0.625"/><stop style="stop-color:#3385f9;stop-opacity:1;" offset="0.632813"/><stop style="stop-color:#3484f9;stop-opacity:1;" offset="0.640625"/><stop style="stop-color:#3483f9;stop-opacity:1;" offset="0.648438"/><stop style="stop-color:#3582f9;stop-opacity:1;" offset="0.65625"/><stop style="stop-color:#3681f9;stop-opacity:1;" offset="0.664062"/><stop style="stop-color:#3681f9;stop-opacity:1;" offset="0.671875"/><stop style="stop-color:#3780f9;stop-opacity:1;" offset="0.679688"/><stop style="stop-color:#377ff9;stop-opacity:1;" offset="0.6875"/><stop style="stop-color:#387ef9;stop-opacity:1;" offset="0.695313"/><stop style="stop-color:#387df9;stop-opacity:1;" offset="0.703125"/><stop style="stop-color:#397cf9;stop-opacity:1;" offset="0.710938"/><stop style="stop-color:#397cfa;stop-opacity:1;" offset="0.71875"/><stop style="stop-color:#3a7bfa;stop-opacity:1;" offset="0.726563"/><stop style="stop-color:#3a7afa;stop-opacity:1;" offset="0.734375"/><stop style="stop-color:#3b79fa;stop-opacity:1;" offset="0.742188"/><stop style="stop-color:#3b78fa;stop-opacity:1;" offset="0.75"/><stop style="stop-color:#3c77fa;stop-opacity:1;" offset="0.757812"/><stop style="stop-color:#3d77fa;stop-opacity:1;" offset="0.765625"/><stop style="stop-color:#3d76fa;stop-opacity:1;" offset="0.773438"/><stop style="stop-color:#3e75fa;stop-opacity:1;" offset="0.78125"/><stop style="stop-color:#3e74fa;stop-opacity:1;" offset="0.789062"/><stop style="stop-color:#3f73fa;stop-opacity:1;" offset="0.796875"/><stop style="stop-color:#3f72fa;stop-opacity:1;" offset="0.804688"/><stop style="stop-color:#4072fa;stop-opacity:1;" offset="0.8125"/><stop style="stop-color:#4071fa;stop-opacity:1;" offset="0.820313"/><stop style="stop-color:#4170fa;stop-opacity:1;" offset="0.828125"/><stop style="stop-color:#416ffa;stop-opacity:1;" offset="0.835938"/><stop style="stop-color:#426efa;stop-opacity:1;" offset="0.84375"/><stop style="stop-color:#426dfa;stop-opacity:1;" offset="0.851562"/><stop style="stop-color:#436dfa;stop-opacity:1;" offset="0.859375"/><stop style="stop-color:#446cfa;stop-opacity:1;" offset="0.867188"/><stop style="stop-color:#446bfa;stop-opacity:1;" offset="0.875"/><stop style="stop-color:#456afa;stop-opacity:1;" offset="0.882812"/><stop style="stop-color:#4569fa;stop-opacity:1;" offset="0.890625"/><stop style="stop-color:#4668fa;stop-opacity:1;" offset="0.898438"/><stop style="stop-color:#4668fa;stop-opacity:1;" offset="0.90625"/><stop style="stop-color:#4767fa;stop-opacity:1;" offset="0.914062"/><stop style="stop-color:#4766fb;stop-opacity:1;" offset="0.921875"/><stop style="stop-color:#4865fb;stop-opacity:1;" offset="0.929688"/><stop style="stop-color:#4864fb;stop-opacity:1;" offset="0.9375"/><stop style="stop-color:#4963fb;stop-opacity:1;" offset="0.945312"/><stop style="stop-color:#4962fb;stop-opacity:1;" offset="0.953125"/><stop style="stop-color:#4a62fb;stop-opacity:1;" offset="0.960938"/><stop style="stop-color:#4b61fb;stop-opacity:1;" offset="0.96875"/><stop style="stop-color:#4b60fb;stop-opacity:1;" offset="0.976562"/><stop style="stop-color:#4c5ffb;stop-opacity:1;" offset="0.984375"/><stop style="stop-color:#4c5efb;stop-opacity:1;" offset="0.992188"/><stop style="stop-color:#4d5dfb;stop-opacity:1;" offset="1"/></linearGradient></defs><g id="7e7807f07f"><g clip-rule="nonzero" clip-path="url(#2e9c5a49a8)"><g clip-rule="nonzero" clip-path="url(#6a7edd1bfd)"><path style=" stroke:none;fill-rule:nonzero;fill:url(#def98cdcb7);" d="M 379.234375 379.234375 L 379.234375 430.984375 L 430.984375 430.984375 L 430.984375 379.234375 Z M 379.234375 379.234375 "/></g></g><path style=" stroke:none;fill-rule:evenodd;fill:#ffffff;fill-opacity:1;" d="M 416.949219 398.863281 C 416.105469 397.273438 414.988281 395.90625 413.597656 394.765625 C 412.203125 393.621094 410.644531 392.792969 408.917969 392.277344 C 409.125 392.554688 409.316406 392.84375 409.492188 393.140625 C 410.476562 394.9375 411.152344 396.847656 411.519531 398.863281 Z M 409.703125 398.863281 L 400.519531 398.863281 C 400.851562 397.167969 401.4375 395.5625 402.269531 394.046875 C 403.085938 392.648438 404.019531 391.726562 405.109375 391.726562 C 406.203125 391.726562 407.136719 392.644531 407.953125 394.046875 C 408.785156 395.5625 409.371094 397.167969 409.703125 398.863281 Z M 398.699219 398.863281 C 399.066406 396.847656 399.742188 394.9375 400.726562 393.140625 C 400.902344 392.84375 401.09375 392.554688 401.300781 392.277344 C 399.574219 392.792969 398.015625 393.621094 396.625 394.765625 C 395.230469 395.90625 394.113281 397.273438 393.269531 398.863281 Z M 417.734375 409.570312 C 418.242188 408.128906 418.496094 406.640625 418.496094 405.109375 C 418.496094 403.582031 418.242188 402.09375 417.734375 400.648438 L 411.824219 400.648438 C 412.222656 403.625 412.222656 406.597656 411.824219 409.570312 Z M 410.023438 409.570312 L 400.195312 409.570312 C 399.777344 406.597656 399.777344 403.625 400.195312 400.648438 L 410.023438 400.648438 C 410.445312 403.625 410.445312 406.597656 410.023438 409.570312 Z M 398.398438 409.570312 C 397.996094 406.597656 397.996094 403.625 398.398438 400.648438 L 392.488281 400.648438 C 391.980469 402.09375 391.726562 403.582031 391.726562 405.109375 C 391.726562 406.640625 391.980469 408.128906 392.488281 409.570312 Z M 416.957031 411.355469 L 411.519531 411.355469 C 411.15625 413.375 410.480469 415.28125 409.492188 417.082031 C 409.320312 417.378906 409.128906 417.667969 408.921875 417.941406 C 410.648438 417.425781 412.207031 416.597656 413.597656 415.457031 C 414.988281 414.3125 416.105469 412.949219 416.949219 411.355469 Z M 398.710938 411.355469 L 393.273438 411.355469 C 394.117188 412.949219 395.234375 414.316406 396.625 415.457031 C 398.019531 416.597656 399.578125 417.425781 401.304688 417.941406 C 401.09375 417.667969 400.90625 417.378906 400.730469 417.082031 C 399.746094 415.28125 399.070312 413.375 398.699219 411.355469 Z M 409.714844 411.355469 C 409.378906 413.054688 408.792969 414.660156 407.960938 416.175781 C 407.144531 417.570312 406.210938 418.496094 405.121094 418.496094 C 404.03125 418.496094 403.09375 417.578125 402.277344 416.175781 C 401.445312 414.660156 400.863281 413.054688 400.527344 411.355469 Z M 405.109375 389.941406 C 404.113281 389.941406 403.128906 390.039062 402.152344 390.234375 C 401.175781 390.429688 400.226562 390.714844 399.304688 391.097656 C 398.386719 391.476562 397.511719 391.945312 396.683594 392.5 C 395.855469 393.050781 395.089844 393.679688 394.386719 394.386719 C 393.679688 395.089844 393.050781 395.855469 392.5 396.683594 C 391.945312 397.511719 391.476562 398.386719 391.097656 399.304688 C 390.714844 400.226562 390.429688 401.175781 390.234375 402.152344 C 390.039062 403.128906 389.941406 404.113281 389.941406 405.109375 C 389.941406 406.105469 390.039062 407.09375 390.234375 408.070312 C 390.429688 409.046875 390.714844 409.996094 391.097656 410.914062 C 391.476562 411.835938 391.945312 412.710938 392.5 413.539062 C 393.050781 414.367188 393.679688 415.132812 394.386719 415.835938 C 395.089844 416.539062 395.855469 417.167969 396.683594 417.722656 C 397.511719 418.277344 398.386719 418.742188 399.304688 419.125 C 400.226562 419.503906 401.175781 419.792969 402.152344 419.988281 C 403.128906 420.183594 404.113281 420.277344 405.109375 420.277344 C 406.105469 420.277344 407.09375 420.183594 408.070312 419.988281 C 409.046875 419.792969 409.996094 419.503906 410.914062 419.125 C 411.835938 418.742188 412.710938 418.277344 413.539062 417.722656 C 414.367188 417.167969 415.132812 416.539062 415.835938 415.835938 C 416.539062 415.132812 417.167969 414.367188 417.722656 413.539062 C 418.277344 412.710938 418.742188 411.835938 419.125 410.914062 C 419.503906 409.996094 419.792969 409.046875 419.988281 408.070312 C 420.183594 407.09375 420.277344 406.105469 420.277344 405.109375 C 420.277344 404.113281 420.183594 403.128906 419.988281 402.152344 C 419.792969 401.175781 419.503906 400.226562 419.125 399.304688 C 418.742188 398.386719 418.277344 397.511719 417.722656 396.683594 C 417.167969 395.855469 416.539062 395.089844 415.835938 394.386719 C 415.132812 393.679688 414.367188 393.050781 413.539062 392.5 C 412.710938 391.945312 411.835938 391.476562 410.914062 391.097656 C 409.996094 390.714844 409.046875 390.429688 408.070312 390.234375 C 407.09375 390.039062 406.105469 389.941406 405.109375 389.941406 Z M 405.109375 389.941406 "/></g></svg>